<?xml version="1.0" encoding="UTF-8" standalone="no"?>
<!DOCTYPE svg PUBLIC "-//W3C//DTD SVG 1.1//EN"
 "http://www.w3.org/Graphics/SVG/1.1/DTD/svg11.dtd">
<!-- Generated by graphviz version 2.43.0 (0)
 -->
<!-- Title: %3 Pages: 1 -->
<svg width="2354pt" height="238pt"
 viewBox="0.00 0.00 2354.00 237.74" xmlns="http://www.w3.org/2000/svg" xmlns:xlink="http://www.w3.org/1999/xlink">
<g id="graph0" class="graph" transform="scale(1 1) rotate(0) translate(36 201.74)">
<title>%3</title>
<polygon fill="dimgray" stroke="transparent" points="-36,36 -36,-201.74 2318,-201.74 2318,36 -36,36"/>
<text text-anchor="middle" x="1141" y="-150.54" font-family="Helvetica,sans-Serif" font-size="14.00">Sweep&#39;s Plan &amp; Progress</text>
<!-- start -->
<g id="node1" class="node">
<title>start</title>
</g>
<!-- a0720629&#45;d136&#45;4923&#45;bcf5&#45;befeca46783a -->
<g id="node3" class="node">
<title>a0720629&#45;d136&#45;4923&#45;bcf5&#45;befeca46783a</title>
<ellipse fill="#0ee832" stroke="black" cx="253.5" cy="-99.87" rx="154.3" ry="26.74"/>
<text text-anchor="middle" x="253.5" y="-103.67" font-family="Helvetica,sans-Serif" font-size="14.00">✓ Create</text>
<text text-anchor="middle" x="253.5" y="-88.67" font-family="Helvetica,sans-Serif" font-size="14.00">public_html/js/emojiDetails.js</text>
</g>
<!-- start&#45;&gt;a0720629&#45;d136&#45;4923&#45;bcf5&#45;befeca46783a -->
<g id="edge12" class="edge">
<title>start&#45;&gt;a0720629&#45;d136&#45;4923&#45;bcf5&#45;befeca46783a</title>
<path fill="none" stroke="black" d="M48.09,-99.87C51.31,-99.87 67.37,-99.87 89.22,-99.87"/>
<polygon fill="black" stroke="black" points="89.27,-103.37 99.27,-99.87 89.27,-96.37 89.27,-103.37"/>
<text text-anchor="middle" x="73.68" y="-106.67" font-family="Helvetica,sans-Serif" font-size="14.00">Start</text>
</g>
<!-- end -->
<g id="node2" class="node">
<title>end</title>
</g>
<!-- 063ed923&#45;5e69&#45;47be&#45;81e5&#45;d48044abe3d2 -->
<g id="node4" class="node">
<title>063ed923&#45;5e69&#45;47be&#45;81e5&#45;d48044abe3d2</title>
<ellipse fill="white" stroke="black" cx="616.5" cy="-99.87" rx="126.64" ry="26.74"/>
<text text-anchor="middle" x="616.5" y="-103.67" font-family="Helvetica,sans-Serif" font-size="14.00">▶ Create</text>
<text text-anchor="middle" x="616.5" y="-88.67" font-family="Helvetica,sans-Serif" font-size="14.00">test/emojiDetails.test.js</text>
</g>
<!-- a0720629&#45;d136&#45;4923&#45;bcf5&#45;befeca46783a&#45;&gt;063ed923&#45;5e69&#45;47be&#45;81e5&#45;d48044abe3d2 -->
<g id="edge2" class="edge">
<title>a0720629&#45;d136&#45;4923&#45;bcf5&#45;befeca46783a&#45;&gt;063ed923&#45;5e69&#45;47be&#45;81e5&#45;d48044abe3d2</title>
<path fill="none" stroke="black" d="M407.7,-99.87C431.61,-99.87 455.52,-99.87 479.43,-99.87"/>
<polygon fill="black" stroke="black" points="479.67,-103.37 489.67,-99.87 479.67,-96.37 479.67,-103.37"/>
</g>
<!-- af1777e0&#45;5b21&#45;4537&#45;bfda&#45;e9d52ef45481 -->
<g id="node9" class="node">
<title>af1777e0&#45;5b21&#45;4537&#45;bfda&#45;e9d52ef45481</title>
<polygon fill="yellow" stroke="black" points="413,-36 0,-36 0,0 413,0 413,-36"/>
<text text-anchor="middle" x="206.5" y="-14.3" font-family="Helvetica,sans-Serif" font-size="14.00">⋯ Run GitHub Actions for `public_html/js/emojiDetails.js`</text>
</g>
<!-- a0720629&#45;d136&#45;4923&#45;bcf5&#45;befeca46783a&#45;&gt;af1777e0&#45;5b21&#45;4537&#45;bfda&#45;e9d52ef45481 -->
<g id="edge1" class="edge">
<title>a0720629&#45;d136&#45;4923&#45;bcf5&#45;befeca46783a&#45;&gt;af1777e0&#45;5b21&#45;4537&#45;bfda&#45;e9d52ef45481</title>
<path fill="none" stroke="black" stroke-dasharray="5,2" d="M238.11,-72.72C232.86,-63.8 227,-53.84 221.77,-44.95"/>
<polygon fill="black" stroke="black" points="224.68,-42.99 216.59,-36.15 218.65,-46.54 224.68,-42.99"/>
</g>
<!-- 8567e623&#45;0310&#45;4884&#45;a00a&#45;19757defefb1 -->
<g id="node5" class="node">
<title>8567e623&#45;0310&#45;4884&#45;a00a&#45;19757defefb1</title>
<ellipse fill="white" stroke="black" cx="1003.5" cy="-99.87" rx="124.4" ry="26.74"/>
<text text-anchor="middle" x="1003.5" y="-103.67" font-family="Helvetica,sans-Serif" font-size="14.00">▶ Modify</text>
<text text-anchor="middle" x="1003.5" y="-88.67" font-family="Helvetica,sans-Serif" font-size="14.00">public_html/index.html</text>
</g>
<!-- 063ed923&#45;5e69&#45;47be&#45;81e5&#45;d48044abe3d2&#45;&gt;8567e623&#45;0310&#45;4884&#45;a00a&#45;19757defefb1 -->
<g id="edge4" class="edge">
<title>063ed923&#45;5e69&#45;47be&#45;81e5&#45;d48044abe3d2&#45;&gt;8567e623&#45;0310&#45;4884&#45;a00a&#45;19757defefb1</title>
<path fill="none" stroke="black" d="M743.11,-99.87C785.01,-99.87 826.92,-99.87 868.82,-99.87"/>
<polygon fill="black" stroke="black" points="868.9,-103.37 878.9,-99.87 868.9,-96.37 868.9,-103.37"/>
</g>
<!-- 8e7a5915&#45;341a&#45;4f7a&#45;a8fd&#45;8a211f2e2b3c -->
<g id="node10" class="node">
<title>8e7a5915&#45;341a&#45;4f7a&#45;a8fd&#45;8a211f2e2b3c</title>
<polygon fill="white" stroke="black" points="801.5,-36 431.5,-36 431.5,0 801.5,0 801.5,-36"/>
<text text-anchor="middle" x="616.5" y="-14.3" font-family="Helvetica,sans-Serif" font-size="14.00">▶ Run GitHub Actions for `test/emojiDetails.test.js`</text>
</g>
<!-- 063ed923&#45;5e69&#45;47be&#45;81e5&#45;d48044abe3d2&#45;&gt;8e7a5915&#45;341a&#45;4f7a&#45;a8fd&#45;8a211f2e2b3c -->
<g id="edge3" class="edge">
<title>063ed923&#45;5e69&#45;47be&#45;81e5&#45;d48044abe3d2&#45;&gt;8e7a5915&#45;341a&#45;4f7a&#45;a8fd&#45;8a211f2e2b3c</title>
<path fill="none" stroke="black" stroke-dasharray="5,2" d="M616.5,-72.72C616.5,-64.27 616.5,-54.89 616.5,-46.36"/>
<polygon fill="black" stroke="black" points="620,-46.15 616.5,-36.15 613,-46.15 620,-46.15"/>
</g>
<!-- a2856f19&#45;ce93&#45;4d9c&#45;bd4d&#45;70e77a0c8c5b -->
<g id="node6" class="node">
<title>a2856f19&#45;ce93&#45;4d9c&#45;bd4d&#45;70e77a0c8c5b</title>
<ellipse fill="white" stroke="black" cx="1405.5" cy="-99.87" rx="147.57" ry="26.74"/>
<text text-anchor="middle" x="1405.5" y="-103.67" font-family="Helvetica,sans-Serif" font-size="14.00">▶ Modify</text>
<text text-anchor="middle" x="1405.5" y="-88.67" font-family="Helvetica,sans-Serif" font-size="14.00">public_html/fluffyclouds.css</text>
</g>
<!-- 8567e623&#45;0310&#45;4884&#45;a00a&#45;19757defefb1&#45;&gt;a2856f19&#45;ce93&#45;4d9c&#45;bd4d&#45;70e77a0c8c5b -->
<g id="edge6" class="edge">
<title>8567e623&#45;0310&#45;4884&#45;a00a&#45;19757defefb1&#45;&gt;a2856f19&#45;ce93&#45;4d9c&#45;bd4d&#45;70e77a0c8c5b</title>
<path fill="none" stroke="black" d="M1128.34,-99.87C1168.01,-99.87 1207.69,-99.87 1247.36,-99.87"/>
<polygon fill="black" stroke="black" points="1247.45,-103.37 1257.45,-99.87 1247.45,-96.37 1247.45,-103.37"/>
</g>
<!-- 55f5384a&#45;114c&#45;435f&#45;91bd&#45;ed5a37986c87 -->
<g id="node11" class="node">
<title>55f5384a&#45;114c&#45;435f&#45;91bd&#45;ed5a37986c87</title>
<polygon fill="white" stroke="black" points="1187,-36 820,-36 820,0 1187,0 1187,-36"/>
<text text-anchor="middle" x="1003.5" y="-14.3" font-family="Helvetica,sans-Serif" font-size="14.00">▶ Run GitHub Actions for `public_html/index.html`</text>
</g>
<!-- 8567e623&#45;0310&#45;4884&#45;a00a&#45;19757defefb1&#45;&gt;55f5384a&#45;114c&#45;435f&#45;91bd&#45;ed5a37986c87 -->
<g id="edge5" class="edge">
<title>8567e623&#45;0310&#45;4884&#45;a00a&#45;19757defefb1&#45;&gt;55f5384a&#45;114c&#45;435f&#45;91bd&#45;ed5a37986c87</title>
<path fill="none" stroke="black" stroke-dasharray="5,2" d="M1003.5,-72.72C1003.5,-64.27 1003.5,-54.89 1003.5,-46.36"/>
<polygon fill="black" stroke="black" points="1007,-46.15 1003.5,-36.15 1000,-46.15 1007,-46.15"/>
</g>
<!-- 827c414a&#45;0c4c&#45;4451&#45;8098&#45;63e11322a853 -->
<g id="node7" class="node">
<title>827c414a&#45;0c4c&#45;4451&#45;8098&#45;63e11322a853</title>
<ellipse fill="white" stroke="black" cx="1796.5" cy="-99.87" rx="108.79" ry="26.74"/>
<text text-anchor="middle" x="1796.5" y="-103.67" font-family="Helvetica,sans-Serif" font-size="14.00">▶ Modify</text>
<text text-anchor="middle" x="1796.5" y="-88.67" font-family="Helvetica,sans-Serif" font-size="14.00">public_html/neo.css</text>
</g>
<!-- a2856f19&#45;ce93&#45;4d9c&#45;bd4d&#45;70e77a0c8c5b&#45;&gt;827c414a&#45;0c4c&#45;4451&#45;8098&#45;63e11322a853 -->
<g id="edge8" class="edge">
<title>a2856f19&#45;ce93&#45;4d9c&#45;bd4d&#45;70e77a0c8c5b&#45;&gt;827c414a&#45;0c4c&#45;4451&#45;8098&#45;63e11322a853</title>
<path fill="none" stroke="black" d="M1553.65,-99.87C1594.84,-99.87 1636.03,-99.87 1677.22,-99.87"/>
<polygon fill="black" stroke="black" points="1677.41,-103.37 1687.41,-99.87 1677.41,-96.37 1677.41,-103.37"/>
</g>
<!-- 800e48cb&#45;79cb&#45;42cc&#45;8211&#45;865875937c94 -->
<g id="node12" class="node">
<title>800e48cb&#45;79cb&#45;42cc&#45;8211&#45;865875937c94</title>
<polygon fill="white" stroke="black" points="1606,-36 1205,-36 1205,0 1606,0 1606,-36"/>
<text text-anchor="middle" x="1405.5" y="-14.3" font-family="Helvetica,sans-Serif" font-size="14.00">▶ Run GitHub Actions for `public_html/fluffyclouds.css`</text>
</g>
<!-- a2856f19&#45;ce93&#45;4d9c&#45;bd4d&#45;70e77a0c8c5b&#45;&gt;800e48cb&#45;79cb&#45;42cc&#45;8211&#45;865875937c94 -->
<g id="edge7" class="edge">
<title>a2856f19&#45;ce93&#45;4d9c&#45;bd4d&#45;70e77a0c8c5b&#45;&gt;800e48cb&#45;79cb&#45;42cc&#45;8211&#45;865875937c94</title>
<path fill="none" stroke="black" stroke-dasharray="5,2" d="M1405.5,-72.72C1405.5,-64.27 1405.5,-54.89 1405.5,-46.36"/>
<polygon fill="black" stroke="black" points="1409,-46.15 1405.5,-36.15 1402,-46.15 1409,-46.15"/>
</g>
<!-- 97f89aea&#45;8c95&#45;47ff&#45;87af&#45;b10d73750d8d -->
<g id="node8" class="node">
<title>97f89aea&#45;8c95&#45;47ff&#45;87af&#45;b10d73750d8d</title>
<ellipse fill="white" stroke="black" cx="2074.5" cy="-99.87" rx="73.58" ry="26.74"/>
<text text-anchor="middle" x="2074.5" y="-103.67" font-family="Helvetica,sans-Serif" font-size="14.00">▶ Modify</text>
<text text-anchor="middle" x="2074.5" y="-88.67" font-family="Helvetica,sans-Serif" font-size="14.00">README.md</text>
</g>
<!-- 827c414a&#45;0c4c&#45;4451&#45;8098&#45;63e11322a853&#45;&gt;97f89aea&#45;8c95&#45;47ff&#45;87af&#45;b10d73750d8d -->
<g id="edge10" class="edge">
<title>827c414a&#45;0c4c&#45;4451&#45;8098&#45;63e11322a853&#45;&gt;97f89aea&#45;8c95&#45;47ff&#45;87af&#45;b10d73750d8d</title>
<path fill="none" stroke="black" d="M1905.64,-99.87C1934.06,-99.87 1962.48,-99.87 1990.9,-99.87"/>
<polygon fill="black" stroke="black" points="1990.95,-103.37 2000.95,-99.87 1990.95,-96.37 1990.95,-103.37"/>
</g>
<!-- 7385bf8b&#45;e06d&#45;4b9a&#45;8d90&#45;9d9f22f2b5cb -->
<g id="node13" class="node">
<title>7385bf8b&#45;e06d&#45;4b9a&#45;8d90&#45;9d9f22f2b5cb</title>
<polygon fill="white" stroke="black" points="1969,-36 1624,-36 1624,0 1969,0 1969,-36"/>
<text text-anchor="middle" x="1796.5" y="-14.3" font-family="Helvetica,sans-Serif" font-size="14.00">▶ Run GitHub Actions for `public_html/neo.css`</text>
</g>
<!-- 827c414a&#45;0c4c&#45;4451&#45;8098&#45;63e11322a853&#45;&gt;7385bf8b&#45;e06d&#45;4b9a&#45;8d90&#45;9d9f22f2b5cb -->
<g id="edge9" class="edge">
<title>827c414a&#45;0c4c&#45;4451&#45;8098&#45;63e11322a853&#45;&gt;7385bf8b&#45;e06d&#45;4b9a&#45;8d90&#45;9d9f22f2b5cb</title>
<path fill="none" stroke="black" stroke-dasharray="5,2" d="M1796.5,-72.72C1796.5,-64.27 1796.5,-54.89 1796.5,-46.36"/>
<polygon fill="black" stroke="black" points="1800,-46.15 1796.5,-36.15 1793,-46.15 1800,-46.15"/>
</g>
<!-- 97f89aea&#45;8c95&#45;47ff&#45;87af&#45;b10d73750d8d&#45;&gt;end -->
<g id="edge13" class="edge">
<title>97f89aea&#45;8c95&#45;47ff&#45;87af&#45;b10d73750d8d&#45;&gt;end</title>
<path fill="none" stroke="black" d="M2148.22,-99.87C2166.84,-99.87 2184.64,-99.87 2195.56,-99.87"/>
<polygon fill="black" stroke="black" points="2195.78,-103.37 2205.78,-99.87 2195.78,-96.37 2195.78,-103.37"/>
<text text-anchor="middle" x="2177.02" y="-106.67" font-family="Helvetica,sans-Serif" font-size="14.00">Finish</text>
</g>
<!-- 914de1e8&#45;6a23&#45;421a&#45;8322&#45;40034f825cab -->
<g id="node14" class="node">
<title>914de1e8&#45;6a23&#45;421a&#45;8322&#45;40034f825cab</title>
<polygon fill="white" stroke="black" points="2282,-36 1987,-36 1987,0 2282,0 2282,-36"/>
<text text-anchor="middle" x="2134.5" y="-14.3" font-family="Helvetica,sans-Serif" font-size="14.00">▶ Run GitHub Actions for `README.md`</text>
</g>
<!-- 97f89aea&#45;8c95&#45;47ff&#45;87af&#45;b10d73750d8d&#45;&gt;914de1e8&#45;6a23&#45;421a&#45;8322&#45;40034f825cab -->
<g id="edge11" class="edge">
<title>97f89aea&#45;8c95&#45;47ff&#45;87af&#45;b10d73750d8d&#45;&gt;914de1e8&#45;6a23&#45;421a&#45;8322&#45;40034f825cab</title>
<path fill="none" stroke="black" stroke-dasharray="5,2" d="M2093.48,-73.6C2100.53,-64.22 2108.51,-53.59 2115.56,-44.22"/>
<polygon fill="black" stroke="black" points="2118.49,-46.13 2121.7,-36.04 2112.9,-41.93 2118.49,-46.13"/>
</g>
</g>
</svg>
