<?xml version="1.0" encoding="UTF-8" standalone="no"?>
<!DOCTYPE svg PUBLIC "-//W3C//DTD SVG 1.1//EN"
 "http://www.w3.org/Graphics/SVG/1.1/DTD/svg11.dtd">
<!-- Generated by graphviz version 2.43.0 (0)
 -->
<!-- Title: %3 Pages: 1 -->
<svg width="2358pt" height="238pt"
 viewBox="0.00 0.00 2358.00 237.74" xmlns="http://www.w3.org/2000/svg" xmlns:xlink="http://www.w3.org/1999/xlink">
<g id="graph0" class="graph" transform="scale(1 1) rotate(0) translate(36 201.74)">
<title>%3</title>
<polygon fill="dimgray" stroke="transparent" points="-36,36 -36,-201.74 2322,-201.74 2322,36 -36,36"/>
<text text-anchor="middle" x="1143" y="-150.54" font-family="Helvetica,sans-Serif" font-size="14.00">Sweep&#39;s Plan &amp; Progress</text>
<!-- start -->
<g id="node1" class="node">
<title>start</title>
</g>
<!-- a0720629&#45;d136&#45;4923&#45;bcf5&#45;befeca46783a -->
<g id="node3" class="node">
<title>a0720629&#45;d136&#45;4923&#45;bcf5&#45;befeca46783a</title>
<ellipse fill="#0ee832" stroke="black" cx="251" cy="-99.87" rx="154.3" ry="26.74"/>
<text text-anchor="middle" x="251" y="-103.67" font-family="Helvetica,sans-Serif" font-size="14.00">✓ Create</text>
<text text-anchor="middle" x="251" y="-88.67" font-family="Helvetica,sans-Serif" font-size="14.00">public_html/js/emojiDetails.js</text>
</g>
<!-- start&#45;&gt;a0720629&#45;d136&#45;4923&#45;bcf5&#45;befeca46783a -->
<g id="edge12" class="edge">
<title>start&#45;&gt;a0720629&#45;d136&#45;4923&#45;bcf5&#45;befeca46783a</title>
<path fill="none" stroke="black" d="M45.59,-99.87C48.81,-99.87 64.87,-99.87 86.72,-99.87"/>
<polygon fill="black" stroke="black" points="86.77,-103.37 96.77,-99.87 86.77,-96.37 86.77,-103.37"/>
<text text-anchor="middle" x="71.18" y="-106.67" font-family="Helvetica,sans-Serif" font-size="14.00">Start</text>
</g>
<!-- end -->
<g id="node2" class="node">
<title>end</title>
</g>
<!-- 063ed923&#45;5e69&#45;47be&#45;81e5&#45;d48044abe3d2 -->
<g id="node4" class="node">
<title>063ed923&#45;5e69&#45;47be&#45;81e5&#45;d48044abe3d2</title>
<ellipse fill="#0ee832" stroke="black" cx="614" cy="-99.87" rx="126.64" ry="26.74"/>
<text text-anchor="middle" x="614" y="-103.67" font-family="Helvetica,sans-Serif" font-size="14.00">✓ Create</text>
<text text-anchor="middle" x="614" y="-88.67" font-family="Helvetica,sans-Serif" font-size="14.00">test/emojiDetails.test.js</text>
</g>
<!-- a0720629&#45;d136&#45;4923&#45;bcf5&#45;befeca46783a&#45;&gt;063ed923&#45;5e69&#45;47be&#45;81e5&#45;d48044abe3d2 -->
<g id="edge2" class="edge">
<title>a0720629&#45;d136&#45;4923&#45;bcf5&#45;befeca46783a&#45;&gt;063ed923&#45;5e69&#45;47be&#45;81e5&#45;d48044abe3d2</title>
<path fill="none" stroke="black" d="M405.2,-99.87C429.11,-99.87 453.02,-99.87 476.93,-99.87"/>
<polygon fill="black" stroke="black" points="477.17,-103.37 487.17,-99.87 477.17,-96.37 477.17,-103.37"/>
</g>
<!-- af1777e0&#45;5b21&#45;4537&#45;bfda&#45;e9d52ef45481 -->
<g id="node9" class="node">
<title>af1777e0&#45;5b21&#45;4537&#45;bfda&#45;e9d52ef45481</title>
<polygon fill="#0ee832" stroke="black" points="410,-36 0,-36 0,0 410,0 410,-36"/>
<text text-anchor="middle" x="205" y="-14.3" font-family="Helvetica,sans-Serif" font-size="14.00">✓ Run GitHub Actions for `public_html/js/emojiDetails.js`</text>
</g>
<!-- a0720629&#45;d136&#45;4923&#45;bcf5&#45;befeca46783a&#45;&gt;af1777e0&#45;5b21&#45;4537&#45;bfda&#45;e9d52ef45481 -->
<g id="edge1" class="edge">
<title>a0720629&#45;d136&#45;4923&#45;bcf5&#45;befeca46783a&#45;&gt;af1777e0&#45;5b21&#45;4537&#45;bfda&#45;e9d52ef45481</title>
<path fill="none" stroke="black" stroke-dasharray="5,2" d="M235.94,-72.72C230.8,-63.8 225.07,-53.84 219.94,-44.95"/>
<polygon fill="black" stroke="black" points="222.9,-43.07 214.88,-36.15 216.83,-46.56 222.9,-43.07"/>
</g>
<!-- 8567e623&#45;0310&#45;4884&#45;a00a&#45;19757defefb1 -->
<g id="node5" class="node">
<title>8567e623&#45;0310&#45;4884&#45;a00a&#45;19757defefb1</title>
<ellipse fill="#0ee832" stroke="black" cx="1002" cy="-99.87" rx="124.4" ry="26.74"/>
<text text-anchor="middle" x="1002" y="-103.67" font-family="Helvetica,sans-Serif" font-size="14.00">✓ Modify</text>
<text text-anchor="middle" x="1002" y="-88.67" font-family="Helvetica,sans-Serif" font-size="14.00">public_html/index.html</text>
</g>
<!-- 063ed923&#45;5e69&#45;47be&#45;81e5&#45;d48044abe3d2&#45;&gt;8567e623&#45;0310&#45;4884&#45;a00a&#45;19757defefb1 -->
<g id="edge4" class="edge">
<title>063ed923&#45;5e69&#45;47be&#45;81e5&#45;d48044abe3d2&#45;&gt;8567e623&#45;0310&#45;4884&#45;a00a&#45;19757defefb1</title>
<path fill="none" stroke="black" d="M740.93,-99.87C783.02,-99.87 825.12,-99.87 867.21,-99.87"/>
<polygon fill="black" stroke="black" points="867.33,-103.37 877.33,-99.87 867.33,-96.37 867.33,-103.37"/>
</g>
<!-- 8e7a5915&#45;341a&#45;4f7a&#45;a8fd&#45;8a211f2e2b3c -->
<g id="node10" class="node">
<title>8e7a5915&#45;341a&#45;4f7a&#45;a8fd&#45;8a211f2e2b3c</title>
<polygon fill="#0ee832" stroke="black" points="799.5,-36 428.5,-36 428.5,0 799.5,0 799.5,-36"/>
<text text-anchor="middle" x="614" y="-14.3" font-family="Helvetica,sans-Serif" font-size="14.00">✓ Run GitHub Actions for `test/emojiDetails.test.js`</text>
</g>
<!-- 063ed923&#45;5e69&#45;47be&#45;81e5&#45;d48044abe3d2&#45;&gt;8e7a5915&#45;341a&#45;4f7a&#45;a8fd&#45;8a211f2e2b3c -->
<g id="edge3" class="edge">
<title>063ed923&#45;5e69&#45;47be&#45;81e5&#45;d48044abe3d2&#45;&gt;8e7a5915&#45;341a&#45;4f7a&#45;a8fd&#45;8a211f2e2b3c</title>
<path fill="none" stroke="black" stroke-dasharray="5,2" d="M614,-72.72C614,-64.27 614,-54.89 614,-46.36"/>
<polygon fill="black" stroke="black" points="617.5,-46.15 614,-36.15 610.5,-46.15 617.5,-46.15"/>
</g>
<!-- a2856f19&#45;ce93&#45;4d9c&#45;bd4d&#45;70e77a0c8c5b -->
<g id="node6" class="node">
<title>a2856f19&#45;ce93&#45;4d9c&#45;bd4d&#45;70e77a0c8c5b</title>
<ellipse fill="#0ee832" stroke="black" cx="1405" cy="-99.87" rx="147.57" ry="26.74"/>
<text text-anchor="middle" x="1405" y="-103.67" font-family="Helvetica,sans-Serif" font-size="14.00">✓ Modify</text>
<text text-anchor="middle" x="1405" y="-88.67" font-family="Helvetica,sans-Serif" font-size="14.00">public_html/fluffyclouds.css</text>
</g>
<!-- 8567e623&#45;0310&#45;4884&#45;a00a&#45;19757defefb1&#45;&gt;a2856f19&#45;ce93&#45;4d9c&#45;bd4d&#45;70e77a0c8c5b -->
<g id="edge6" class="edge">
<title>8567e623&#45;0310&#45;4884&#45;a00a&#45;19757defefb1&#45;&gt;a2856f19&#45;ce93&#45;4d9c&#45;bd4d&#45;70e77a0c8c5b</title>
<path fill="none" stroke="black" d="M1126.76,-99.87C1166.84,-99.87 1206.91,-99.87 1246.99,-99.87"/>
<polygon fill="black" stroke="black" points="1247.18,-103.37 1257.18,-99.87 1247.18,-96.37 1247.18,-103.37"/>
</g>
<!-- 55f5384a&#45;114c&#45;435f&#45;91bd&#45;ed5a37986c87 -->
<g id="node11" class="node">
<title>55f5384a&#45;114c&#45;435f&#45;91bd&#45;ed5a37986c87</title>
<polygon fill="#0ee832" stroke="black" points="1186,-36 818,-36 818,0 1186,0 1186,-36"/>
<text text-anchor="middle" x="1002" y="-14.3" font-family="Helvetica,sans-Serif" font-size="14.00">✓ Run GitHub Actions for `public_html/index.html`</text>
</g>
<!-- 8567e623&#45;0310&#45;4884&#45;a00a&#45;19757defefb1&#45;&gt;55f5384a&#45;114c&#45;435f&#45;91bd&#45;ed5a37986c87 -->
<g id="edge5" class="edge">
<title>8567e623&#45;0310&#45;4884&#45;a00a&#45;19757defefb1&#45;&gt;55f5384a&#45;114c&#45;435f&#45;91bd&#45;ed5a37986c87</title>
<path fill="none" stroke="black" stroke-dasharray="5,2" d="M1002,-72.72C1002,-64.27 1002,-54.89 1002,-46.36"/>
<polygon fill="black" stroke="black" points="1005.5,-46.15 1002,-36.15 998.5,-46.15 1005.5,-46.15"/>
</g>
<!-- 827c414a&#45;0c4c&#45;4451&#45;8098&#45;63e11322a853 -->
<g id="node7" class="node">
<title>827c414a&#45;0c4c&#45;4451&#45;8098&#45;63e11322a853</title>
<ellipse fill="#0ee832" stroke="black" cx="1798" cy="-99.87" rx="108.79" ry="26.74"/>
<text text-anchor="middle" x="1798" y="-103.67" font-family="Helvetica,sans-Serif" font-size="14.00">✓ Modify</text>
<text text-anchor="middle" x="1798" y="-88.67" font-family="Helvetica,sans-Serif" font-size="14.00">public_html/neo.css</text>
</g>
<!-- a2856f19&#45;ce93&#45;4d9c&#45;bd4d&#45;70e77a0c8c5b&#45;&gt;827c414a&#45;0c4c&#45;4451&#45;8098&#45;63e11322a853 -->
<g id="edge8" class="edge">
<title>a2856f19&#45;ce93&#45;4d9c&#45;bd4d&#45;70e77a0c8c5b&#45;&gt;827c414a&#45;0c4c&#45;4451&#45;8098&#45;63e11322a853</title>
<path fill="none" stroke="black" d="M1553.14,-99.87C1595.06,-99.87 1636.97,-99.87 1678.88,-99.87"/>
<polygon fill="black" stroke="black" points="1678.96,-103.37 1688.96,-99.87 1678.96,-96.37 1678.96,-103.37"/>
</g>
<!-- 800e48cb&#45;79cb&#45;42cc&#45;8211&#45;865875937c94 -->
<g id="node12" class="node">
<title>800e48cb&#45;79cb&#45;42cc&#45;8211&#45;865875937c94</title>
<polygon fill="#0ee832" stroke="black" points="1606,-36 1204,-36 1204,0 1606,0 1606,-36"/>
<text text-anchor="middle" x="1405" y="-14.3" font-family="Helvetica,sans-Serif" font-size="14.00">✓ Run GitHub Actions for `public_html/fluffyclouds.css`</text>
</g>
<!-- a2856f19&#45;ce93&#45;4d9c&#45;bd4d&#45;70e77a0c8c5b&#45;&gt;800e48cb&#45;79cb&#45;42cc&#45;8211&#45;865875937c94 -->
<g id="edge7" class="edge">
<title>a2856f19&#45;ce93&#45;4d9c&#45;bd4d&#45;70e77a0c8c5b&#45;&gt;800e48cb&#45;79cb&#45;42cc&#45;8211&#45;865875937c94</title>
<path fill="none" stroke="black" stroke-dasharray="5,2" d="M1405,-72.72C1405,-64.27 1405,-54.89 1405,-46.36"/>
<polygon fill="black" stroke="black" points="1408.5,-46.15 1405,-36.15 1401.5,-46.15 1408.5,-46.15"/>
</g>
<!-- 97f89aea&#45;8c95&#45;47ff&#45;87af&#45;b10d73750d8d -->
<g id="node8" class="node">
<title>97f89aea&#45;8c95&#45;47ff&#45;87af&#45;b10d73750d8d</title>
<ellipse fill="#0ee832" stroke="black" cx="2077" cy="-99.87" rx="73.58" ry="26.74"/>
<text text-anchor="middle" x="2077" y="-103.67" font-family="Helvetica,sans-Serif" font-size="14.00">✓ Modify</text>
<text text-anchor="middle" x="2077" y="-88.67" font-family="Helvetica,sans-Serif" font-size="14.00">README.md</text>
</g>
<!-- 827c414a&#45;0c4c&#45;4451&#45;8098&#45;63e11322a853&#45;&gt;97f89aea&#45;8c95&#45;47ff&#45;87af&#45;b10d73750d8d -->
<g id="edge10" class="edge">
<title>827c414a&#45;0c4c&#45;4451&#45;8098&#45;63e11322a853&#45;&gt;97f89aea&#45;8c95&#45;47ff&#45;87af&#45;b10d73750d8d</title>
<path fill="none" stroke="black" d="M1906.98,-99.87C1935.7,-99.87 1964.41,-99.87 1993.13,-99.87"/>
<polygon fill="black" stroke="black" points="1993.28,-103.37 2003.28,-99.87 1993.28,-96.37 1993.28,-103.37"/>
</g>
<!-- 7385bf8b&#45;e06d&#45;4b9a&#45;8d90&#45;9d9f22f2b5cb -->
<g id="node13" class="node">
<title>7385bf8b&#45;e06d&#45;4b9a&#45;8d90&#45;9d9f22f2b5cb</title>
<polygon fill="#0ee832" stroke="black" points="1971.5,-36 1624.5,-36 1624.5,0 1971.5,0 1971.5,-36"/>
<text text-anchor="middle" x="1798" y="-14.3" font-family="Helvetica,sans-Serif" font-size="14.00">✓ Run GitHub Actions for `public_html/neo.css`</text>
</g>
<!-- 827c414a&#45;0c4c&#45;4451&#45;8098&#45;63e11322a853&#45;&gt;7385bf8b&#45;e06d&#45;4b9a&#45;8d90&#45;9d9f22f2b5cb -->
<g id="edge9" class="edge">
<title>827c414a&#45;0c4c&#45;4451&#45;8098&#45;63e11322a853&#45;&gt;7385bf8b&#45;e06d&#45;4b9a&#45;8d90&#45;9d9f22f2b5cb</title>
<path fill="none" stroke="black" stroke-dasharray="5,2" d="M1798,-72.72C1798,-64.27 1798,-54.89 1798,-46.36"/>
<polygon fill="black" stroke="black" points="1801.5,-46.15 1798,-36.15 1794.5,-46.15 1801.5,-46.15"/>
</g>
<!-- 97f89aea&#45;8c95&#45;47ff&#45;87af&#45;b10d73750d8d&#45;&gt;end -->
<g id="edge13" class="edge">
<title>97f89aea&#45;8c95&#45;47ff&#45;87af&#45;b10d73750d8d&#45;&gt;end</title>
<path fill="none" stroke="black" d="M2150.72,-99.87C2169.34,-99.87 2187.14,-99.87 2198.06,-99.87"/>
<polygon fill="black" stroke="black" points="2198.28,-103.37 2208.28,-99.87 2198.28,-96.37 2198.28,-103.37"/>
<text text-anchor="middle" x="2179.52" y="-106.67" font-family="Helvetica,sans-Serif" font-size="14.00">Finish</text>
</g>
<!-- 914de1e8&#45;6a23&#45;421a&#45;8322&#45;40034f825cab -->
<g id="node14" class="node">
<title>914de1e8&#45;6a23&#45;421a&#45;8322&#45;40034f825cab</title>
<polygon fill="#0ee832" stroke="black" points="2286,-36 1990,-36 1990,0 2286,0 2286,-36"/>
<text text-anchor="middle" x="2138" y="-14.3" font-family="Helvetica,sans-Serif" font-size="14.00">✓ Run GitHub Actions for `README.md`</text>
</g>
<!-- 97f89aea&#45;8c95&#45;47ff&#45;87af&#45;b10d73750d8d&#45;&gt;914de1e8&#45;6a23&#45;421a&#45;8322&#45;40034f825cab -->
<g id="edge11" class="edge">
<title>97f89aea&#45;8c95&#45;47ff&#45;87af&#45;b10d73750d8d&#45;&gt;914de1e8&#45;6a23&#45;421a&#45;8322&#45;40034f825cab</title>
<path fill="none" stroke="black" stroke-dasharray="5,2" d="M2096.3,-73.6C2103.46,-64.22 2111.58,-53.59 2118.74,-44.22"/>
<polygon fill="black" stroke="black" points="2121.7,-46.11 2124.99,-36.04 2116.14,-41.86 2121.7,-46.11"/>
</g>
</g>
</svg>
