<?xml version="1.0" encoding="UTF-8" standalone="no"?>
<!DOCTYPE svg PUBLIC "-//W3C//DTD SVG 1.1//EN"
 "http://www.w3.org/Graphics/SVG/1.1/DTD/svg11.dtd">
<!-- Generated by graphviz version 2.43.0 (0)
 -->
<!-- Title: %3 Pages: 1 -->
<svg width="2351pt" height="238pt"
 viewBox="0.00 0.00 2350.50 237.74" xmlns="http://www.w3.org/2000/svg" xmlns:xlink="http://www.w3.org/1999/xlink">
<g id="graph0" class="graph" transform="scale(1 1) rotate(0) translate(36 201.74)">
<title>%3</title>
<polygon fill="dimgray" stroke="transparent" points="-36,36 -36,-201.74 2314.5,-201.74 2314.5,36 -36,36"/>
<text text-anchor="middle" x="1139.25" y="-150.54" font-family="Helvetica,sans-Serif" font-size="14.00">Sweep&#39;s Plan &amp; Progress</text>
<!-- start -->
<g id="node1" class="node">
<title>start</title>
</g>
<!-- a0720629&#45;d136&#45;4923&#45;bcf5&#45;befeca46783a -->
<g id="node3" class="node">
<title>a0720629&#45;d136&#45;4923&#45;bcf5&#45;befeca46783a</title>
<ellipse fill="#0ee832" stroke="black" cx="251" cy="-99.87" rx="154.3" ry="26.74"/>
<text text-anchor="middle" x="251" y="-103.67" font-family="Helvetica,sans-Serif" font-size="14.00">✓ Create</text>
<text text-anchor="middle" x="251" y="-88.67" font-family="Helvetica,sans-Serif" font-size="14.00">public_html/js/emojiDetails.js</text>
</g>
<!-- start&#45;&gt;a0720629&#45;d136&#45;4923&#45;bcf5&#45;befeca46783a -->
<g id="edge12" class="edge">
<title>start&#45;&gt;a0720629&#45;d136&#45;4923&#45;bcf5&#45;befeca46783a</title>
<path fill="none" stroke="black" d="M45.59,-99.87C48.81,-99.87 64.87,-99.87 86.72,-99.87"/>
<polygon fill="black" stroke="black" points="86.77,-103.37 96.77,-99.87 86.77,-96.37 86.77,-103.37"/>
<text text-anchor="middle" x="71.18" y="-106.67" font-family="Helvetica,sans-Serif" font-size="14.00">Start</text>
</g>
<!-- end -->
<g id="node2" class="node">
<title>end</title>
</g>
<!-- 063ed923&#45;5e69&#45;47be&#45;81e5&#45;d48044abe3d2 -->
<g id="node4" class="node">
<title>063ed923&#45;5e69&#45;47be&#45;81e5&#45;d48044abe3d2</title>
<ellipse fill="white" stroke="black" cx="613" cy="-99.87" rx="126.64" ry="26.74"/>
<text text-anchor="middle" x="613" y="-103.67" font-family="Helvetica,sans-Serif" font-size="14.00">▶ Create</text>
<text text-anchor="middle" x="613" y="-88.67" font-family="Helvetica,sans-Serif" font-size="14.00">test/emojiDetails.test.js</text>
</g>
<!-- a0720629&#45;d136&#45;4923&#45;bcf5&#45;befeca46783a&#45;&gt;063ed923&#45;5e69&#45;47be&#45;81e5&#45;d48044abe3d2 -->
<g id="edge2" class="edge">
<title>a0720629&#45;d136&#45;4923&#45;bcf5&#45;befeca46783a&#45;&gt;063ed923&#45;5e69&#45;47be&#45;81e5&#45;d48044abe3d2</title>
<path fill="none" stroke="black" d="M405.49,-99.87C429.01,-99.87 452.53,-99.87 476.06,-99.87"/>
<polygon fill="black" stroke="black" points="476.14,-103.37 486.14,-99.87 476.14,-96.37 476.14,-103.37"/>
</g>
<!-- af1777e0&#45;5b21&#45;4537&#45;bfda&#45;e9d52ef45481 -->
<g id="node9" class="node">
<title>af1777e0&#45;5b21&#45;4537&#45;bfda&#45;e9d52ef45481</title>
<polygon fill="#0ee832" stroke="black" points="410,-36 0,-36 0,0 410,0 410,-36"/>
<text text-anchor="middle" x="205" y="-14.3" font-family="Helvetica,sans-Serif" font-size="14.00">✓ Run GitHub Actions for `public_html/js/emojiDetails.js`</text>
</g>
<!-- a0720629&#45;d136&#45;4923&#45;bcf5&#45;befeca46783a&#45;&gt;af1777e0&#45;5b21&#45;4537&#45;bfda&#45;e9d52ef45481 -->
<g id="edge1" class="edge">
<title>a0720629&#45;d136&#45;4923&#45;bcf5&#45;befeca46783a&#45;&gt;af1777e0&#45;5b21&#45;4537&#45;bfda&#45;e9d52ef45481</title>
<path fill="none" stroke="black" stroke-dasharray="5,2" d="M235.94,-72.72C230.8,-63.8 225.07,-53.84 219.94,-44.95"/>
<polygon fill="black" stroke="black" points="222.9,-43.07 214.88,-36.15 216.83,-46.56 222.9,-43.07"/>
</g>
<!-- 8567e623&#45;0310&#45;4884&#45;a00a&#45;19757defefb1 -->
<g id="node5" class="node">
<title>8567e623&#45;0310&#45;4884&#45;a00a&#45;19757defefb1</title>
<ellipse fill="white" stroke="black" cx="1000" cy="-99.87" rx="124.4" ry="26.74"/>
<text text-anchor="middle" x="1000" y="-103.67" font-family="Helvetica,sans-Serif" font-size="14.00">▶ Modify</text>
<text text-anchor="middle" x="1000" y="-88.67" font-family="Helvetica,sans-Serif" font-size="14.00">public_html/index.html</text>
</g>
<!-- 063ed923&#45;5e69&#45;47be&#45;81e5&#45;d48044abe3d2&#45;&gt;8567e623&#45;0310&#45;4884&#45;a00a&#45;19757defefb1 -->
<g id="edge4" class="edge">
<title>063ed923&#45;5e69&#45;47be&#45;81e5&#45;d48044abe3d2&#45;&gt;8567e623&#45;0310&#45;4884&#45;a00a&#45;19757defefb1</title>
<path fill="none" stroke="black" d="M739.61,-99.87C781.51,-99.87 823.42,-99.87 865.32,-99.87"/>
<polygon fill="black" stroke="black" points="865.4,-103.37 875.4,-99.87 865.4,-96.37 865.4,-103.37"/>
</g>
<!-- 8e7a5915&#45;341a&#45;4f7a&#45;a8fd&#45;8a211f2e2b3c -->
<g id="node10" class="node">
<title>8e7a5915&#45;341a&#45;4f7a&#45;a8fd&#45;8a211f2e2b3c</title>
<polygon fill="white" stroke="black" points="798,-36 428,-36 428,0 798,0 798,-36"/>
<text text-anchor="middle" x="613" y="-14.3" font-family="Helvetica,sans-Serif" font-size="14.00">▶ Run GitHub Actions for `test/emojiDetails.test.js`</text>
</g>
<!-- 063ed923&#45;5e69&#45;47be&#45;81e5&#45;d48044abe3d2&#45;&gt;8e7a5915&#45;341a&#45;4f7a&#45;a8fd&#45;8a211f2e2b3c -->
<g id="edge3" class="edge">
<title>063ed923&#45;5e69&#45;47be&#45;81e5&#45;d48044abe3d2&#45;&gt;8e7a5915&#45;341a&#45;4f7a&#45;a8fd&#45;8a211f2e2b3c</title>
<path fill="none" stroke="black" stroke-dasharray="5,2" d="M613,-72.72C613,-64.27 613,-54.89 613,-46.36"/>
<polygon fill="black" stroke="black" points="616.5,-46.15 613,-36.15 609.5,-46.15 616.5,-46.15"/>
</g>
<!-- a2856f19&#45;ce93&#45;4d9c&#45;bd4d&#45;70e77a0c8c5b -->
<g id="node6" class="node">
<title>a2856f19&#45;ce93&#45;4d9c&#45;bd4d&#45;70e77a0c8c5b</title>
<ellipse fill="white" stroke="black" cx="1402" cy="-99.87" rx="147.57" ry="26.74"/>
<text text-anchor="middle" x="1402" y="-103.67" font-family="Helvetica,sans-Serif" font-size="14.00">▶ Modify</text>
<text text-anchor="middle" x="1402" y="-88.67" font-family="Helvetica,sans-Serif" font-size="14.00">public_html/fluffyclouds.css</text>
</g>
<!-- 8567e623&#45;0310&#45;4884&#45;a00a&#45;19757defefb1&#45;&gt;a2856f19&#45;ce93&#45;4d9c&#45;bd4d&#45;70e77a0c8c5b -->
<g id="edge6" class="edge">
<title>8567e623&#45;0310&#45;4884&#45;a00a&#45;19757defefb1&#45;&gt;a2856f19&#45;ce93&#45;4d9c&#45;bd4d&#45;70e77a0c8c5b</title>
<path fill="none" stroke="black" d="M1124.84,-99.87C1164.51,-99.87 1204.19,-99.87 1243.86,-99.87"/>
<polygon fill="black" stroke="black" points="1243.95,-103.37 1253.95,-99.87 1243.95,-96.37 1243.95,-103.37"/>
</g>
<!-- 55f5384a&#45;114c&#45;435f&#45;91bd&#45;ed5a37986c87 -->
<g id="node11" class="node">
<title>55f5384a&#45;114c&#45;435f&#45;91bd&#45;ed5a37986c87</title>
<polygon fill="white" stroke="black" points="1183.5,-36 816.5,-36 816.5,0 1183.5,0 1183.5,-36"/>
<text text-anchor="middle" x="1000" y="-14.3" font-family="Helvetica,sans-Serif" font-size="14.00">▶ Run GitHub Actions for `public_html/index.html`</text>
</g>
<!-- 8567e623&#45;0310&#45;4884&#45;a00a&#45;19757defefb1&#45;&gt;55f5384a&#45;114c&#45;435f&#45;91bd&#45;ed5a37986c87 -->
<g id="edge5" class="edge">
<title>8567e623&#45;0310&#45;4884&#45;a00a&#45;19757defefb1&#45;&gt;55f5384a&#45;114c&#45;435f&#45;91bd&#45;ed5a37986c87</title>
<path fill="none" stroke="black" stroke-dasharray="5,2" d="M1000,-72.72C1000,-64.27 1000,-54.89 1000,-46.36"/>
<polygon fill="black" stroke="black" points="1003.5,-46.15 1000,-36.15 996.5,-46.15 1003.5,-46.15"/>
</g>
<!-- 827c414a&#45;0c4c&#45;4451&#45;8098&#45;63e11322a853 -->
<g id="node7" class="node">
<title>827c414a&#45;0c4c&#45;4451&#45;8098&#45;63e11322a853</title>
<ellipse fill="white" stroke="black" cx="1793" cy="-99.87" rx="108.79" ry="26.74"/>
<text text-anchor="middle" x="1793" y="-103.67" font-family="Helvetica,sans-Serif" font-size="14.00">▶ Modify</text>
<text text-anchor="middle" x="1793" y="-88.67" font-family="Helvetica,sans-Serif" font-size="14.00">public_html/neo.css</text>
</g>
<!-- a2856f19&#45;ce93&#45;4d9c&#45;bd4d&#45;70e77a0c8c5b&#45;&gt;827c414a&#45;0c4c&#45;4451&#45;8098&#45;63e11322a853 -->
<g id="edge8" class="edge">
<title>a2856f19&#45;ce93&#45;4d9c&#45;bd4d&#45;70e77a0c8c5b&#45;&gt;827c414a&#45;0c4c&#45;4451&#45;8098&#45;63e11322a853</title>
<path fill="none" stroke="black" d="M1550.15,-99.87C1591.34,-99.87 1632.53,-99.87 1673.72,-99.87"/>
<polygon fill="black" stroke="black" points="1673.91,-103.37 1683.91,-99.87 1673.91,-96.37 1673.91,-103.37"/>
</g>
<!-- 800e48cb&#45;79cb&#45;42cc&#45;8211&#45;865875937c94 -->
<g id="node12" class="node">
<title>800e48cb&#45;79cb&#45;42cc&#45;8211&#45;865875937c94</title>
<polygon fill="white" stroke="black" points="1602.5,-36 1201.5,-36 1201.5,0 1602.5,0 1602.5,-36"/>
<text text-anchor="middle" x="1402" y="-14.3" font-family="Helvetica,sans-Serif" font-size="14.00">▶ Run GitHub Actions for `public_html/fluffyclouds.css`</text>
</g>
<!-- a2856f19&#45;ce93&#45;4d9c&#45;bd4d&#45;70e77a0c8c5b&#45;&gt;800e48cb&#45;79cb&#45;42cc&#45;8211&#45;865875937c94 -->
<g id="edge7" class="edge">
<title>a2856f19&#45;ce93&#45;4d9c&#45;bd4d&#45;70e77a0c8c5b&#45;&gt;800e48cb&#45;79cb&#45;42cc&#45;8211&#45;865875937c94</title>
<path fill="none" stroke="black" stroke-dasharray="5,2" d="M1402,-72.72C1402,-64.27 1402,-54.89 1402,-46.36"/>
<polygon fill="black" stroke="black" points="1405.5,-46.15 1402,-36.15 1398.5,-46.15 1405.5,-46.15"/>
</g>
<!-- 97f89aea&#45;8c95&#45;47ff&#45;87af&#45;b10d73750d8d -->
<g id="node8" class="node">
<title>97f89aea&#45;8c95&#45;47ff&#45;87af&#45;b10d73750d8d</title>
<ellipse fill="white" stroke="black" cx="2071" cy="-99.87" rx="73.58" ry="26.74"/>
<text text-anchor="middle" x="2071" y="-103.67" font-family="Helvetica,sans-Serif" font-size="14.00">▶ Modify</text>
<text text-anchor="middle" x="2071" y="-88.67" font-family="Helvetica,sans-Serif" font-size="14.00">README.md</text>
</g>
<!-- 827c414a&#45;0c4c&#45;4451&#45;8098&#45;63e11322a853&#45;&gt;97f89aea&#45;8c95&#45;47ff&#45;87af&#45;b10d73750d8d -->
<g id="edge10" class="edge">
<title>827c414a&#45;0c4c&#45;4451&#45;8098&#45;63e11322a853&#45;&gt;97f89aea&#45;8c95&#45;47ff&#45;87af&#45;b10d73750d8d</title>
<path fill="none" stroke="black" d="M1902.14,-99.87C1930.56,-99.87 1958.98,-99.87 1987.4,-99.87"/>
<polygon fill="black" stroke="black" points="1987.45,-103.37 1997.45,-99.87 1987.45,-96.37 1987.45,-103.37"/>
</g>
<!-- 7385bf8b&#45;e06d&#45;4b9a&#45;8d90&#45;9d9f22f2b5cb -->
<g id="node13" class="node">
<title>7385bf8b&#45;e06d&#45;4b9a&#45;8d90&#45;9d9f22f2b5cb</title>
<polygon fill="white" stroke="black" points="1965.5,-36 1620.5,-36 1620.5,0 1965.5,0 1965.5,-36"/>
<text text-anchor="middle" x="1793" y="-14.3" font-family="Helvetica,sans-Serif" font-size="14.00">▶ Run GitHub Actions for `public_html/neo.css`</text>
</g>
<!-- 827c414a&#45;0c4c&#45;4451&#45;8098&#45;63e11322a853&#45;&gt;7385bf8b&#45;e06d&#45;4b9a&#45;8d90&#45;9d9f22f2b5cb -->
<g id="edge9" class="edge">
<title>827c414a&#45;0c4c&#45;4451&#45;8098&#45;63e11322a853&#45;&gt;7385bf8b&#45;e06d&#45;4b9a&#45;8d90&#45;9d9f22f2b5cb</title>
<path fill="none" stroke="black" stroke-dasharray="5,2" d="M1793,-72.72C1793,-64.27 1793,-54.89 1793,-46.36"/>
<polygon fill="black" stroke="black" points="1796.5,-46.15 1793,-36.15 1789.5,-46.15 1796.5,-46.15"/>
</g>
<!-- 97f89aea&#45;8c95&#45;47ff&#45;87af&#45;b10d73750d8d&#45;&gt;end -->
<g id="edge13" class="edge">
<title>97f89aea&#45;8c95&#45;47ff&#45;87af&#45;b10d73750d8d&#45;&gt;end</title>
<path fill="none" stroke="black" d="M2144.72,-99.87C2163.34,-99.87 2181.14,-99.87 2192.06,-99.87"/>
<polygon fill="black" stroke="black" points="2192.28,-103.37 2202.28,-99.87 2192.28,-96.37 2192.28,-103.37"/>
<text text-anchor="middle" x="2173.52" y="-106.67" font-family="Helvetica,sans-Serif" font-size="14.00">Finish</text>
</g>
<!-- 914de1e8&#45;6a23&#45;421a&#45;8322&#45;40034f825cab -->
<g id="node14" class="node">
<title>914de1e8&#45;6a23&#45;421a&#45;8322&#45;40034f825cab</title>
<polygon fill="white" stroke="black" points="2278.5,-36 1983.5,-36 1983.5,0 2278.5,0 2278.5,-36"/>
<text text-anchor="middle" x="2131" y="-14.3" font-family="Helvetica,sans-Serif" font-size="14.00">▶ Run GitHub Actions for `README.md`</text>
</g>
<!-- 97f89aea&#45;8c95&#45;47ff&#45;87af&#45;b10d73750d8d&#45;&gt;914de1e8&#45;6a23&#45;421a&#45;8322&#45;40034f825cab -->
<g id="edge11" class="edge">
<title>97f89aea&#45;8c95&#45;47ff&#45;87af&#45;b10d73750d8d&#45;&gt;914de1e8&#45;6a23&#45;421a&#45;8322&#45;40034f825cab</title>
<path fill="none" stroke="black" stroke-dasharray="5,2" d="M2089.98,-73.6C2097.03,-64.22 2105.01,-53.59 2112.06,-44.22"/>
<polygon fill="black" stroke="black" points="2114.99,-46.13 2118.2,-36.04 2109.4,-41.93 2114.99,-46.13"/>
</g>
</g>
</svg>
