<?xml version="1.0" encoding="UTF-8" standalone="no"?>
<!DOCTYPE svg PUBLIC "-//W3C//DTD SVG 1.1//EN"
 "http://www.w3.org/Graphics/SVG/1.1/DTD/svg11.dtd">
<!-- Generated by graphviz version 2.43.0 (0)
 -->
<!-- Title: %3 Pages: 1 -->
<svg width="2355pt" height="238pt"
 viewBox="0.00 0.00 2354.50 237.74" xmlns="http://www.w3.org/2000/svg" xmlns:xlink="http://www.w3.org/1999/xlink">
<g id="graph0" class="graph" transform="scale(1 1) rotate(0) translate(36 201.74)">
<title>%3</title>
<polygon fill="dimgray" stroke="transparent" points="-36,36 -36,-201.74 2318.5,-201.74 2318.5,36 -36,36"/>
<text text-anchor="middle" x="1141.25" y="-150.54" font-family="Helvetica,sans-Serif" font-size="14.00">Sweep&#39;s Plan &amp; Progress</text>
<!-- start -->
<g id="node1" class="node">
<title>start</title>
</g>
<!-- a0720629&#45;d136&#45;4923&#45;bcf5&#45;befeca46783a -->
<g id="node3" class="node">
<title>a0720629&#45;d136&#45;4923&#45;bcf5&#45;befeca46783a</title>
<ellipse fill="#0ee832" stroke="black" cx="252" cy="-99.87" rx="154.3" ry="26.74"/>
<text text-anchor="middle" x="252" y="-103.67" font-family="Helvetica,sans-Serif" font-size="14.00">✓ Create</text>
<text text-anchor="middle" x="252" y="-88.67" font-family="Helvetica,sans-Serif" font-size="14.00">public_html/js/emojiDetails.js</text>
</g>
<!-- start&#45;&gt;a0720629&#45;d136&#45;4923&#45;bcf5&#45;befeca46783a -->
<g id="edge12" class="edge">
<title>start&#45;&gt;a0720629&#45;d136&#45;4923&#45;bcf5&#45;befeca46783a</title>
<path fill="none" stroke="black" d="M46.59,-99.87C49.81,-99.87 65.87,-99.87 87.72,-99.87"/>
<polygon fill="black" stroke="black" points="87.77,-103.37 97.77,-99.87 87.77,-96.37 87.77,-103.37"/>
<text text-anchor="middle" x="72.18" y="-106.67" font-family="Helvetica,sans-Serif" font-size="14.00">Start</text>
</g>
<!-- end -->
<g id="node2" class="node">
<title>end</title>
</g>
<!-- 063ed923&#45;5e69&#45;47be&#45;81e5&#45;d48044abe3d2 -->
<g id="node4" class="node">
<title>063ed923&#45;5e69&#45;47be&#45;81e5&#45;d48044abe3d2</title>
<ellipse fill="#0ee832" stroke="black" cx="615" cy="-99.87" rx="126.64" ry="26.74"/>
<text text-anchor="middle" x="615" y="-103.67" font-family="Helvetica,sans-Serif" font-size="14.00">✓ Create</text>
<text text-anchor="middle" x="615" y="-88.67" font-family="Helvetica,sans-Serif" font-size="14.00">test/emojiDetails.test.js</text>
</g>
<!-- a0720629&#45;d136&#45;4923&#45;bcf5&#45;befeca46783a&#45;&gt;063ed923&#45;5e69&#45;47be&#45;81e5&#45;d48044abe3d2 -->
<g id="edge2" class="edge">
<title>a0720629&#45;d136&#45;4923&#45;bcf5&#45;befeca46783a&#45;&gt;063ed923&#45;5e69&#45;47be&#45;81e5&#45;d48044abe3d2</title>
<path fill="none" stroke="black" d="M406.2,-99.87C430.11,-99.87 454.02,-99.87 477.93,-99.87"/>
<polygon fill="black" stroke="black" points="478.17,-103.37 488.17,-99.87 478.17,-96.37 478.17,-103.37"/>
</g>
<!-- af1777e0&#45;5b21&#45;4537&#45;bfda&#45;e9d52ef45481 -->
<g id="node9" class="node">
<title>af1777e0&#45;5b21&#45;4537&#45;bfda&#45;e9d52ef45481</title>
<polygon fill="#0ee832" stroke="black" points="410,-36 0,-36 0,0 410,0 410,-36"/>
<text text-anchor="middle" x="205" y="-14.3" font-family="Helvetica,sans-Serif" font-size="14.00">✓ Run GitHub Actions for `public_html/js/emojiDetails.js`</text>
</g>
<!-- a0720629&#45;d136&#45;4923&#45;bcf5&#45;befeca46783a&#45;&gt;af1777e0&#45;5b21&#45;4537&#45;bfda&#45;e9d52ef45481 -->
<g id="edge1" class="edge">
<title>a0720629&#45;d136&#45;4923&#45;bcf5&#45;befeca46783a&#45;&gt;af1777e0&#45;5b21&#45;4537&#45;bfda&#45;e9d52ef45481</title>
<path fill="none" stroke="black" stroke-dasharray="5,2" d="M236.61,-72.72C231.36,-63.8 225.5,-53.84 220.27,-44.95"/>
<polygon fill="black" stroke="black" points="223.18,-42.99 215.09,-36.15 217.15,-46.54 223.18,-42.99"/>
</g>
<!-- 8567e623&#45;0310&#45;4884&#45;a00a&#45;19757defefb1 -->
<g id="node5" class="node">
<title>8567e623&#45;0310&#45;4884&#45;a00a&#45;19757defefb1</title>
<ellipse fill="white" stroke="black" cx="1004" cy="-99.87" rx="124.4" ry="26.74"/>
<text text-anchor="middle" x="1004" y="-103.67" font-family="Helvetica,sans-Serif" font-size="14.00">▶ Modify</text>
<text text-anchor="middle" x="1004" y="-88.67" font-family="Helvetica,sans-Serif" font-size="14.00">public_html/index.html</text>
</g>
<!-- 063ed923&#45;5e69&#45;47be&#45;81e5&#45;d48044abe3d2&#45;&gt;8567e623&#45;0310&#45;4884&#45;a00a&#45;19757defefb1 -->
<g id="edge4" class="edge">
<title>063ed923&#45;5e69&#45;47be&#45;81e5&#45;d48044abe3d2&#45;&gt;8567e623&#45;0310&#45;4884&#45;a00a&#45;19757defefb1</title>
<path fill="none" stroke="black" d="M741.88,-99.87C784.3,-99.87 826.72,-99.87 869.14,-99.87"/>
<polygon fill="black" stroke="black" points="869.34,-103.37 879.34,-99.87 869.34,-96.37 869.34,-103.37"/>
</g>
<!-- 8e7a5915&#45;341a&#45;4f7a&#45;a8fd&#45;8a211f2e2b3c -->
<g id="node10" class="node">
<title>8e7a5915&#45;341a&#45;4f7a&#45;a8fd&#45;8a211f2e2b3c</title>
<polygon fill="yellow" stroke="black" points="802,-36 428,-36 428,0 802,0 802,-36"/>
<text text-anchor="middle" x="615" y="-14.3" font-family="Helvetica,sans-Serif" font-size="14.00">⋯ Run GitHub Actions for `test/emojiDetails.test.js`</text>
</g>
<!-- 063ed923&#45;5e69&#45;47be&#45;81e5&#45;d48044abe3d2&#45;&gt;8e7a5915&#45;341a&#45;4f7a&#45;a8fd&#45;8a211f2e2b3c -->
<g id="edge3" class="edge">
<title>063ed923&#45;5e69&#45;47be&#45;81e5&#45;d48044abe3d2&#45;&gt;8e7a5915&#45;341a&#45;4f7a&#45;a8fd&#45;8a211f2e2b3c</title>
<path fill="none" stroke="black" stroke-dasharray="5,2" d="M615,-72.72C615,-64.27 615,-54.89 615,-46.36"/>
<polygon fill="black" stroke="black" points="618.5,-46.15 615,-36.15 611.5,-46.15 618.5,-46.15"/>
</g>
<!-- a2856f19&#45;ce93&#45;4d9c&#45;bd4d&#45;70e77a0c8c5b -->
<g id="node6" class="node">
<title>a2856f19&#45;ce93&#45;4d9c&#45;bd4d&#45;70e77a0c8c5b</title>
<ellipse fill="white" stroke="black" cx="1406" cy="-99.87" rx="147.57" ry="26.74"/>
<text text-anchor="middle" x="1406" y="-103.67" font-family="Helvetica,sans-Serif" font-size="14.00">▶ Modify</text>
<text text-anchor="middle" x="1406" y="-88.67" font-family="Helvetica,sans-Serif" font-size="14.00">public_html/fluffyclouds.css</text>
</g>
<!-- 8567e623&#45;0310&#45;4884&#45;a00a&#45;19757defefb1&#45;&gt;a2856f19&#45;ce93&#45;4d9c&#45;bd4d&#45;70e77a0c8c5b -->
<g id="edge6" class="edge">
<title>8567e623&#45;0310&#45;4884&#45;a00a&#45;19757defefb1&#45;&gt;a2856f19&#45;ce93&#45;4d9c&#45;bd4d&#45;70e77a0c8c5b</title>
<path fill="none" stroke="black" d="M1128.84,-99.87C1168.51,-99.87 1208.19,-99.87 1247.86,-99.87"/>
<polygon fill="black" stroke="black" points="1247.95,-103.37 1257.95,-99.87 1247.95,-96.37 1247.95,-103.37"/>
</g>
<!-- 55f5384a&#45;114c&#45;435f&#45;91bd&#45;ed5a37986c87 -->
<g id="node11" class="node">
<title>55f5384a&#45;114c&#45;435f&#45;91bd&#45;ed5a37986c87</title>
<polygon fill="white" stroke="black" points="1187.5,-36 820.5,-36 820.5,0 1187.5,0 1187.5,-36"/>
<text text-anchor="middle" x="1004" y="-14.3" font-family="Helvetica,sans-Serif" font-size="14.00">▶ Run GitHub Actions for `public_html/index.html`</text>
</g>
<!-- 8567e623&#45;0310&#45;4884&#45;a00a&#45;19757defefb1&#45;&gt;55f5384a&#45;114c&#45;435f&#45;91bd&#45;ed5a37986c87 -->
<g id="edge5" class="edge">
<title>8567e623&#45;0310&#45;4884&#45;a00a&#45;19757defefb1&#45;&gt;55f5384a&#45;114c&#45;435f&#45;91bd&#45;ed5a37986c87</title>
<path fill="none" stroke="black" stroke-dasharray="5,2" d="M1004,-72.72C1004,-64.27 1004,-54.89 1004,-46.36"/>
<polygon fill="black" stroke="black" points="1007.5,-46.15 1004,-36.15 1000.5,-46.15 1007.5,-46.15"/>
</g>
<!-- 827c414a&#45;0c4c&#45;4451&#45;8098&#45;63e11322a853 -->
<g id="node7" class="node">
<title>827c414a&#45;0c4c&#45;4451&#45;8098&#45;63e11322a853</title>
<ellipse fill="white" stroke="black" cx="1797" cy="-99.87" rx="108.79" ry="26.74"/>
<text text-anchor="middle" x="1797" y="-103.67" font-family="Helvetica,sans-Serif" font-size="14.00">▶ Modify</text>
<text text-anchor="middle" x="1797" y="-88.67" font-family="Helvetica,sans-Serif" font-size="14.00">public_html/neo.css</text>
</g>
<!-- a2856f19&#45;ce93&#45;4d9c&#45;bd4d&#45;70e77a0c8c5b&#45;&gt;827c414a&#45;0c4c&#45;4451&#45;8098&#45;63e11322a853 -->
<g id="edge8" class="edge">
<title>a2856f19&#45;ce93&#45;4d9c&#45;bd4d&#45;70e77a0c8c5b&#45;&gt;827c414a&#45;0c4c&#45;4451&#45;8098&#45;63e11322a853</title>
<path fill="none" stroke="black" d="M1554.15,-99.87C1595.34,-99.87 1636.53,-99.87 1677.72,-99.87"/>
<polygon fill="black" stroke="black" points="1677.91,-103.37 1687.91,-99.87 1677.91,-96.37 1677.91,-103.37"/>
</g>
<!-- 800e48cb&#45;79cb&#45;42cc&#45;8211&#45;865875937c94 -->
<g id="node12" class="node">
<title>800e48cb&#45;79cb&#45;42cc&#45;8211&#45;865875937c94</title>
<polygon fill="white" stroke="black" points="1606.5,-36 1205.5,-36 1205.5,0 1606.5,0 1606.5,-36"/>
<text text-anchor="middle" x="1406" y="-14.3" font-family="Helvetica,sans-Serif" font-size="14.00">▶ Run GitHub Actions for `public_html/fluffyclouds.css`</text>
</g>
<!-- a2856f19&#45;ce93&#45;4d9c&#45;bd4d&#45;70e77a0c8c5b&#45;&gt;800e48cb&#45;79cb&#45;42cc&#45;8211&#45;865875937c94 -->
<g id="edge7" class="edge">
<title>a2856f19&#45;ce93&#45;4d9c&#45;bd4d&#45;70e77a0c8c5b&#45;&gt;800e48cb&#45;79cb&#45;42cc&#45;8211&#45;865875937c94</title>
<path fill="none" stroke="black" stroke-dasharray="5,2" d="M1406,-72.72C1406,-64.27 1406,-54.89 1406,-46.36"/>
<polygon fill="black" stroke="black" points="1409.5,-46.15 1406,-36.15 1402.5,-46.15 1409.5,-46.15"/>
</g>
<!-- 97f89aea&#45;8c95&#45;47ff&#45;87af&#45;b10d73750d8d -->
<g id="node8" class="node">
<title>97f89aea&#45;8c95&#45;47ff&#45;87af&#45;b10d73750d8d</title>
<ellipse fill="white" stroke="black" cx="2075" cy="-99.87" rx="73.58" ry="26.74"/>
<text text-anchor="middle" x="2075" y="-103.67" font-family="Helvetica,sans-Serif" font-size="14.00">▶ Modify</text>
<text text-anchor="middle" x="2075" y="-88.67" font-family="Helvetica,sans-Serif" font-size="14.00">README.md</text>
</g>
<!-- 827c414a&#45;0c4c&#45;4451&#45;8098&#45;63e11322a853&#45;&gt;97f89aea&#45;8c95&#45;47ff&#45;87af&#45;b10d73750d8d -->
<g id="edge10" class="edge">
<title>827c414a&#45;0c4c&#45;4451&#45;8098&#45;63e11322a853&#45;&gt;97f89aea&#45;8c95&#45;47ff&#45;87af&#45;b10d73750d8d</title>
<path fill="none" stroke="black" d="M1906.14,-99.87C1934.56,-99.87 1962.98,-99.87 1991.4,-99.87"/>
<polygon fill="black" stroke="black" points="1991.45,-103.37 2001.45,-99.87 1991.45,-96.37 1991.45,-103.37"/>
</g>
<!-- 7385bf8b&#45;e06d&#45;4b9a&#45;8d90&#45;9d9f22f2b5cb -->
<g id="node13" class="node">
<title>7385bf8b&#45;e06d&#45;4b9a&#45;8d90&#45;9d9f22f2b5cb</title>
<polygon fill="white" stroke="black" points="1969.5,-36 1624.5,-36 1624.5,0 1969.5,0 1969.5,-36"/>
<text text-anchor="middle" x="1797" y="-14.3" font-family="Helvetica,sans-Serif" font-size="14.00">▶ Run GitHub Actions for `public_html/neo.css`</text>
</g>
<!-- 827c414a&#45;0c4c&#45;4451&#45;8098&#45;63e11322a853&#45;&gt;7385bf8b&#45;e06d&#45;4b9a&#45;8d90&#45;9d9f22f2b5cb -->
<g id="edge9" class="edge">
<title>827c414a&#45;0c4c&#45;4451&#45;8098&#45;63e11322a853&#45;&gt;7385bf8b&#45;e06d&#45;4b9a&#45;8d90&#45;9d9f22f2b5cb</title>
<path fill="none" stroke="black" stroke-dasharray="5,2" d="M1797,-72.72C1797,-64.27 1797,-54.89 1797,-46.36"/>
<polygon fill="black" stroke="black" points="1800.5,-46.15 1797,-36.15 1793.5,-46.15 1800.5,-46.15"/>
</g>
<!-- 97f89aea&#45;8c95&#45;47ff&#45;87af&#45;b10d73750d8d&#45;&gt;end -->
<g id="edge13" class="edge">
<title>97f89aea&#45;8c95&#45;47ff&#45;87af&#45;b10d73750d8d&#45;&gt;end</title>
<path fill="none" stroke="black" d="M2148.72,-99.87C2167.34,-99.87 2185.14,-99.87 2196.06,-99.87"/>
<polygon fill="black" stroke="black" points="2196.28,-103.37 2206.28,-99.87 2196.28,-96.37 2196.28,-103.37"/>
<text text-anchor="middle" x="2177.52" y="-106.67" font-family="Helvetica,sans-Serif" font-size="14.00">Finish</text>
</g>
<!-- 914de1e8&#45;6a23&#45;421a&#45;8322&#45;40034f825cab -->
<g id="node14" class="node">
<title>914de1e8&#45;6a23&#45;421a&#45;8322&#45;40034f825cab</title>
<polygon fill="white" stroke="black" points="2282.5,-36 1987.5,-36 1987.5,0 2282.5,0 2282.5,-36"/>
<text text-anchor="middle" x="2135" y="-14.3" font-family="Helvetica,sans-Serif" font-size="14.00">▶ Run GitHub Actions for `README.md`</text>
</g>
<!-- 97f89aea&#45;8c95&#45;47ff&#45;87af&#45;b10d73750d8d&#45;&gt;914de1e8&#45;6a23&#45;421a&#45;8322&#45;40034f825cab -->
<g id="edge11" class="edge">
<title>97f89aea&#45;8c95&#45;47ff&#45;87af&#45;b10d73750d8d&#45;&gt;914de1e8&#45;6a23&#45;421a&#45;8322&#45;40034f825cab</title>
<path fill="none" stroke="black" stroke-dasharray="5,2" d="M2093.98,-73.6C2101.03,-64.22 2109.01,-53.59 2116.06,-44.22"/>
<polygon fill="black" stroke="black" points="2118.99,-46.13 2122.2,-36.04 2113.4,-41.93 2118.99,-46.13"/>
</g>
</g>
</svg>
