<?xml version="1.0" encoding="UTF-8" standalone="no"?>
<!DOCTYPE svg PUBLIC "-//W3C//DTD SVG 1.1//EN"
 "http://www.w3.org/Graphics/SVG/1.1/DTD/svg11.dtd">
<!-- Generated by graphviz version 2.43.0 (0)
 -->
<!-- Title: %3 Pages: 1 -->
<svg width="2352pt" height="238pt"
 viewBox="0.00 0.00 2351.50 237.74" xmlns="http://www.w3.org/2000/svg" xmlns:xlink="http://www.w3.org/1999/xlink">
<g id="graph0" class="graph" transform="scale(1 1) rotate(0) translate(36 201.74)">
<title>%3</title>
<polygon fill="dimgray" stroke="transparent" points="-36,36 -36,-201.74 2315.5,-201.74 2315.5,36 -36,36"/>
<text text-anchor="middle" x="1139.75" y="-150.54" font-family="Helvetica,sans-Serif" font-size="14.00">Sweep&#39;s Plan &amp; Progress</text>
<!-- start -->
<g id="node1" class="node">
<title>start</title>
</g>
<!-- a0720629&#45;d136&#45;4923&#45;bcf5&#45;befeca46783a -->
<g id="node3" class="node">
<title>a0720629&#45;d136&#45;4923&#45;bcf5&#45;befeca46783a</title>
<ellipse fill="#0ee832" stroke="black" cx="251" cy="-99.87" rx="154.3" ry="26.74"/>
<text text-anchor="middle" x="251" y="-103.67" font-family="Helvetica,sans-Serif" font-size="14.00">✓ Create</text>
<text text-anchor="middle" x="251" y="-88.67" font-family="Helvetica,sans-Serif" font-size="14.00">public_html/js/emojiDetails.js</text>
</g>
<!-- start&#45;&gt;a0720629&#45;d136&#45;4923&#45;bcf5&#45;befeca46783a -->
<g id="edge12" class="edge">
<title>start&#45;&gt;a0720629&#45;d136&#45;4923&#45;bcf5&#45;befeca46783a</title>
<path fill="none" stroke="black" d="M45.59,-99.87C48.81,-99.87 64.87,-99.87 86.72,-99.87"/>
<polygon fill="black" stroke="black" points="86.77,-103.37 96.77,-99.87 86.77,-96.37 86.77,-103.37"/>
<text text-anchor="middle" x="71.18" y="-106.67" font-family="Helvetica,sans-Serif" font-size="14.00">Start</text>
</g>
<!-- end -->
<g id="node2" class="node">
<title>end</title>
</g>
<!-- 063ed923&#45;5e69&#45;47be&#45;81e5&#45;d48044abe3d2 -->
<g id="node4" class="node">
<title>063ed923&#45;5e69&#45;47be&#45;81e5&#45;d48044abe3d2</title>
<ellipse fill="#0ee832" stroke="black" cx="614" cy="-99.87" rx="126.64" ry="26.74"/>
<text text-anchor="middle" x="614" y="-103.67" font-family="Helvetica,sans-Serif" font-size="14.00">✓ Create</text>
<text text-anchor="middle" x="614" y="-88.67" font-family="Helvetica,sans-Serif" font-size="14.00">test/emojiDetails.test.js</text>
</g>
<!-- a0720629&#45;d136&#45;4923&#45;bcf5&#45;befeca46783a&#45;&gt;063ed923&#45;5e69&#45;47be&#45;81e5&#45;d48044abe3d2 -->
<g id="edge2" class="edge">
<title>a0720629&#45;d136&#45;4923&#45;bcf5&#45;befeca46783a&#45;&gt;063ed923&#45;5e69&#45;47be&#45;81e5&#45;d48044abe3d2</title>
<path fill="none" stroke="black" d="M405.2,-99.87C429.11,-99.87 453.02,-99.87 476.93,-99.87"/>
<polygon fill="black" stroke="black" points="477.17,-103.37 487.17,-99.87 477.17,-96.37 477.17,-103.37"/>
</g>
<!-- af1777e0&#45;5b21&#45;4537&#45;bfda&#45;e9d52ef45481 -->
<g id="node9" class="node">
<title>af1777e0&#45;5b21&#45;4537&#45;bfda&#45;e9d52ef45481</title>
<polygon fill="#0ee832" stroke="black" points="410,-36 0,-36 0,0 410,0 410,-36"/>
<text text-anchor="middle" x="205" y="-14.3" font-family="Helvetica,sans-Serif" font-size="14.00">✓ Run GitHub Actions for `public_html/js/emojiDetails.js`</text>
</g>
<!-- a0720629&#45;d136&#45;4923&#45;bcf5&#45;befeca46783a&#45;&gt;af1777e0&#45;5b21&#45;4537&#45;bfda&#45;e9d52ef45481 -->
<g id="edge1" class="edge">
<title>a0720629&#45;d136&#45;4923&#45;bcf5&#45;befeca46783a&#45;&gt;af1777e0&#45;5b21&#45;4537&#45;bfda&#45;e9d52ef45481</title>
<path fill="none" stroke="black" stroke-dasharray="5,2" d="M235.94,-72.72C230.8,-63.8 225.07,-53.84 219.94,-44.95"/>
<polygon fill="black" stroke="black" points="222.9,-43.07 214.88,-36.15 216.83,-46.56 222.9,-43.07"/>
</g>
<!-- 8567e623&#45;0310&#45;4884&#45;a00a&#45;19757defefb1 -->
<g id="node5" class="node">
<title>8567e623&#45;0310&#45;4884&#45;a00a&#45;19757defefb1</title>
<ellipse fill="white" stroke="black" cx="1001" cy="-99.87" rx="124.4" ry="26.74"/>
<text text-anchor="middle" x="1001" y="-103.67" font-family="Helvetica,sans-Serif" font-size="14.00">▶ Modify</text>
<text text-anchor="middle" x="1001" y="-88.67" font-family="Helvetica,sans-Serif" font-size="14.00">public_html/index.html</text>
</g>
<!-- 063ed923&#45;5e69&#45;47be&#45;81e5&#45;d48044abe3d2&#45;&gt;8567e623&#45;0310&#45;4884&#45;a00a&#45;19757defefb1 -->
<g id="edge4" class="edge">
<title>063ed923&#45;5e69&#45;47be&#45;81e5&#45;d48044abe3d2&#45;&gt;8567e623&#45;0310&#45;4884&#45;a00a&#45;19757defefb1</title>
<path fill="none" stroke="black" d="M740.61,-99.87C782.51,-99.87 824.42,-99.87 866.32,-99.87"/>
<polygon fill="black" stroke="black" points="866.4,-103.37 876.4,-99.87 866.4,-96.37 866.4,-103.37"/>
</g>
<!-- 8e7a5915&#45;341a&#45;4f7a&#45;a8fd&#45;8a211f2e2b3c -->
<g id="node10" class="node">
<title>8e7a5915&#45;341a&#45;4f7a&#45;a8fd&#45;8a211f2e2b3c</title>
<polygon fill="#0ee832" stroke="black" points="799.5,-36 428.5,-36 428.5,0 799.5,0 799.5,-36"/>
<text text-anchor="middle" x="614" y="-14.3" font-family="Helvetica,sans-Serif" font-size="14.00">✓ Run GitHub Actions for `test/emojiDetails.test.js`</text>
</g>
<!-- 063ed923&#45;5e69&#45;47be&#45;81e5&#45;d48044abe3d2&#45;&gt;8e7a5915&#45;341a&#45;4f7a&#45;a8fd&#45;8a211f2e2b3c -->
<g id="edge3" class="edge">
<title>063ed923&#45;5e69&#45;47be&#45;81e5&#45;d48044abe3d2&#45;&gt;8e7a5915&#45;341a&#45;4f7a&#45;a8fd&#45;8a211f2e2b3c</title>
<path fill="none" stroke="black" stroke-dasharray="5,2" d="M614,-72.72C614,-64.27 614,-54.89 614,-46.36"/>
<polygon fill="black" stroke="black" points="617.5,-46.15 614,-36.15 610.5,-46.15 617.5,-46.15"/>
</g>
<!-- a2856f19&#45;ce93&#45;4d9c&#45;bd4d&#45;70e77a0c8c5b -->
<g id="node6" class="node">
<title>a2856f19&#45;ce93&#45;4d9c&#45;bd4d&#45;70e77a0c8c5b</title>
<ellipse fill="white" stroke="black" cx="1403" cy="-99.87" rx="147.57" ry="26.74"/>
<text text-anchor="middle" x="1403" y="-103.67" font-family="Helvetica,sans-Serif" font-size="14.00">▶ Modify</text>
<text text-anchor="middle" x="1403" y="-88.67" font-family="Helvetica,sans-Serif" font-size="14.00">public_html/fluffyclouds.css</text>
</g>
<!-- 8567e623&#45;0310&#45;4884&#45;a00a&#45;19757defefb1&#45;&gt;a2856f19&#45;ce93&#45;4d9c&#45;bd4d&#45;70e77a0c8c5b -->
<g id="edge6" class="edge">
<title>8567e623&#45;0310&#45;4884&#45;a00a&#45;19757defefb1&#45;&gt;a2856f19&#45;ce93&#45;4d9c&#45;bd4d&#45;70e77a0c8c5b</title>
<path fill="none" stroke="black" d="M1125.84,-99.87C1165.51,-99.87 1205.19,-99.87 1244.86,-99.87"/>
<polygon fill="black" stroke="black" points="1244.95,-103.37 1254.95,-99.87 1244.95,-96.37 1244.95,-103.37"/>
</g>
<!-- 55f5384a&#45;114c&#45;435f&#45;91bd&#45;ed5a37986c87 -->
<g id="node11" class="node">
<title>55f5384a&#45;114c&#45;435f&#45;91bd&#45;ed5a37986c87</title>
<polygon fill="white" stroke="black" points="1184.5,-36 817.5,-36 817.5,0 1184.5,0 1184.5,-36"/>
<text text-anchor="middle" x="1001" y="-14.3" font-family="Helvetica,sans-Serif" font-size="14.00">▶ Run GitHub Actions for `public_html/index.html`</text>
</g>
<!-- 8567e623&#45;0310&#45;4884&#45;a00a&#45;19757defefb1&#45;&gt;55f5384a&#45;114c&#45;435f&#45;91bd&#45;ed5a37986c87 -->
<g id="edge5" class="edge">
<title>8567e623&#45;0310&#45;4884&#45;a00a&#45;19757defefb1&#45;&gt;55f5384a&#45;114c&#45;435f&#45;91bd&#45;ed5a37986c87</title>
<path fill="none" stroke="black" stroke-dasharray="5,2" d="M1001,-72.72C1001,-64.27 1001,-54.89 1001,-46.36"/>
<polygon fill="black" stroke="black" points="1004.5,-46.15 1001,-36.15 997.5,-46.15 1004.5,-46.15"/>
</g>
<!-- 827c414a&#45;0c4c&#45;4451&#45;8098&#45;63e11322a853 -->
<g id="node7" class="node">
<title>827c414a&#45;0c4c&#45;4451&#45;8098&#45;63e11322a853</title>
<ellipse fill="white" stroke="black" cx="1794" cy="-99.87" rx="108.79" ry="26.74"/>
<text text-anchor="middle" x="1794" y="-103.67" font-family="Helvetica,sans-Serif" font-size="14.00">▶ Modify</text>
<text text-anchor="middle" x="1794" y="-88.67" font-family="Helvetica,sans-Serif" font-size="14.00">public_html/neo.css</text>
</g>
<!-- a2856f19&#45;ce93&#45;4d9c&#45;bd4d&#45;70e77a0c8c5b&#45;&gt;827c414a&#45;0c4c&#45;4451&#45;8098&#45;63e11322a853 -->
<g id="edge8" class="edge">
<title>a2856f19&#45;ce93&#45;4d9c&#45;bd4d&#45;70e77a0c8c5b&#45;&gt;827c414a&#45;0c4c&#45;4451&#45;8098&#45;63e11322a853</title>
<path fill="none" stroke="black" d="M1551.15,-99.87C1592.34,-99.87 1633.53,-99.87 1674.72,-99.87"/>
<polygon fill="black" stroke="black" points="1674.91,-103.37 1684.91,-99.87 1674.91,-96.37 1674.91,-103.37"/>
</g>
<!-- 800e48cb&#45;79cb&#45;42cc&#45;8211&#45;865875937c94 -->
<g id="node12" class="node">
<title>800e48cb&#45;79cb&#45;42cc&#45;8211&#45;865875937c94</title>
<polygon fill="white" stroke="black" points="1603.5,-36 1202.5,-36 1202.5,0 1603.5,0 1603.5,-36"/>
<text text-anchor="middle" x="1403" y="-14.3" font-family="Helvetica,sans-Serif" font-size="14.00">▶ Run GitHub Actions for `public_html/fluffyclouds.css`</text>
</g>
<!-- a2856f19&#45;ce93&#45;4d9c&#45;bd4d&#45;70e77a0c8c5b&#45;&gt;800e48cb&#45;79cb&#45;42cc&#45;8211&#45;865875937c94 -->
<g id="edge7" class="edge">
<title>a2856f19&#45;ce93&#45;4d9c&#45;bd4d&#45;70e77a0c8c5b&#45;&gt;800e48cb&#45;79cb&#45;42cc&#45;8211&#45;865875937c94</title>
<path fill="none" stroke="black" stroke-dasharray="5,2" d="M1403,-72.72C1403,-64.27 1403,-54.89 1403,-46.36"/>
<polygon fill="black" stroke="black" points="1406.5,-46.15 1403,-36.15 1399.5,-46.15 1406.5,-46.15"/>
</g>
<!-- 97f89aea&#45;8c95&#45;47ff&#45;87af&#45;b10d73750d8d -->
<g id="node8" class="node">
<title>97f89aea&#45;8c95&#45;47ff&#45;87af&#45;b10d73750d8d</title>
<ellipse fill="white" stroke="black" cx="2072" cy="-99.87" rx="73.58" ry="26.74"/>
<text text-anchor="middle" x="2072" y="-103.67" font-family="Helvetica,sans-Serif" font-size="14.00">▶ Modify</text>
<text text-anchor="middle" x="2072" y="-88.67" font-family="Helvetica,sans-Serif" font-size="14.00">README.md</text>
</g>
<!-- 827c414a&#45;0c4c&#45;4451&#45;8098&#45;63e11322a853&#45;&gt;97f89aea&#45;8c95&#45;47ff&#45;87af&#45;b10d73750d8d -->
<g id="edge10" class="edge">
<title>827c414a&#45;0c4c&#45;4451&#45;8098&#45;63e11322a853&#45;&gt;97f89aea&#45;8c95&#45;47ff&#45;87af&#45;b10d73750d8d</title>
<path fill="none" stroke="black" d="M1903.14,-99.87C1931.56,-99.87 1959.98,-99.87 1988.4,-99.87"/>
<polygon fill="black" stroke="black" points="1988.45,-103.37 1998.45,-99.87 1988.45,-96.37 1988.45,-103.37"/>
</g>
<!-- 7385bf8b&#45;e06d&#45;4b9a&#45;8d90&#45;9d9f22f2b5cb -->
<g id="node13" class="node">
<title>7385bf8b&#45;e06d&#45;4b9a&#45;8d90&#45;9d9f22f2b5cb</title>
<polygon fill="white" stroke="black" points="1966.5,-36 1621.5,-36 1621.5,0 1966.5,0 1966.5,-36"/>
<text text-anchor="middle" x="1794" y="-14.3" font-family="Helvetica,sans-Serif" font-size="14.00">▶ Run GitHub Actions for `public_html/neo.css`</text>
</g>
<!-- 827c414a&#45;0c4c&#45;4451&#45;8098&#45;63e11322a853&#45;&gt;7385bf8b&#45;e06d&#45;4b9a&#45;8d90&#45;9d9f22f2b5cb -->
<g id="edge9" class="edge">
<title>827c414a&#45;0c4c&#45;4451&#45;8098&#45;63e11322a853&#45;&gt;7385bf8b&#45;e06d&#45;4b9a&#45;8d90&#45;9d9f22f2b5cb</title>
<path fill="none" stroke="black" stroke-dasharray="5,2" d="M1794,-72.72C1794,-64.27 1794,-54.89 1794,-46.36"/>
<polygon fill="black" stroke="black" points="1797.5,-46.15 1794,-36.15 1790.5,-46.15 1797.5,-46.15"/>
</g>
<!-- 97f89aea&#45;8c95&#45;47ff&#45;87af&#45;b10d73750d8d&#45;&gt;end -->
<g id="edge13" class="edge">
<title>97f89aea&#45;8c95&#45;47ff&#45;87af&#45;b10d73750d8d&#45;&gt;end</title>
<path fill="none" stroke="black" d="M2145.72,-99.87C2164.34,-99.87 2182.14,-99.87 2193.06,-99.87"/>
<polygon fill="black" stroke="black" points="2193.28,-103.37 2203.28,-99.87 2193.28,-96.37 2193.28,-103.37"/>
<text text-anchor="middle" x="2174.52" y="-106.67" font-family="Helvetica,sans-Serif" font-size="14.00">Finish</text>
</g>
<!-- 914de1e8&#45;6a23&#45;421a&#45;8322&#45;40034f825cab -->
<g id="node14" class="node">
<title>914de1e8&#45;6a23&#45;421a&#45;8322&#45;40034f825cab</title>
<polygon fill="white" stroke="black" points="2279.5,-36 1984.5,-36 1984.5,0 2279.5,0 2279.5,-36"/>
<text text-anchor="middle" x="2132" y="-14.3" font-family="Helvetica,sans-Serif" font-size="14.00">▶ Run GitHub Actions for `README.md`</text>
</g>
<!-- 97f89aea&#45;8c95&#45;47ff&#45;87af&#45;b10d73750d8d&#45;&gt;914de1e8&#45;6a23&#45;421a&#45;8322&#45;40034f825cab -->
<g id="edge11" class="edge">
<title>97f89aea&#45;8c95&#45;47ff&#45;87af&#45;b10d73750d8d&#45;&gt;914de1e8&#45;6a23&#45;421a&#45;8322&#45;40034f825cab</title>
<path fill="none" stroke="black" stroke-dasharray="5,2" d="M2090.98,-73.6C2098.03,-64.22 2106.01,-53.59 2113.06,-44.22"/>
<polygon fill="black" stroke="black" points="2115.99,-46.13 2119.2,-36.04 2110.4,-41.93 2115.99,-46.13"/>
</g>
</g>
</svg>
